<svg width="16" height="16" viewBox="0 0 16 16" fill="none" xmlns="http://www.w3.org/2000/svg">
<path d="M4.89267 6.72333L8 3.616L11.1088 6.72467L12.9168 4.91667L8 0L3.0848 4.9152L4.89274 6.7232L4.89267 6.72333ZM0 8L1.80806 6.19168L3.616 7.99962L1.80794 9.80768L0 8ZM4.89267 9.27686L8 12.384L11.1087 9.27539L12.9177 11.0824L12.9168 11.0834L8 16L3.0848 11.0848L3.08224 11.0822L4.89286 9.27667L4.89267 9.27686ZM12.384 8.00077L14.1921 6.1927L16 8.00064L14.192 9.8087L12.384 8.00077Z" fill="#F3BA2F"/>
<path d="M9.83241 7.99893H9.83317L7.99867 6.16431L6.6427 7.51989L6.48693 7.67573L6.16565 7.99708L6.16309 7.99957L6.16565 8.00219L7.99867 9.83548L9.8333 8.00085L9.8342 7.99983L9.83253 7.99893" fill="#F3BA2F"/>
</svg>
