<svg width="16" height="16" viewBox="0 0 16 16" fill="none" xmlns="http://www.w3.org/2000/svg">
<path fill-rule="evenodd" clip-rule="evenodd" d="M4.58496 14.6666L6.66519 15.2857V14.4761L6.835 14.2856H8.02368V15.238V15.9047H6.7501L5.1793 15.1428L4.58496 14.6666Z" fill="#CDBDB2"/>
<path fill-rule="evenodd" clip-rule="evenodd" d="M11.3774 14.6666L9.33971 15.2857V14.4761L9.16989 14.2856H7.98122V15.238V15.9047H9.2548L10.8255 15.1428L11.3774 14.6666Z" fill="#CDBDB2"/>
<path fill-rule="evenodd" clip-rule="evenodd" d="M6.83534 12.9049L6.66553 14.4763L6.87775 14.2858H9.0853L9.34002 14.4763L9.1702 12.9049L8.83058 12.6667L7.13247 12.7144L6.83534 12.9049Z" fill="#393939"/>
<path fill-rule="evenodd" clip-rule="evenodd" d="M5.68848 2.28577L6.70734 4.95243L7.17436 12.7144H8.82999L9.33942 4.95243L10.2734 2.28577H5.68848Z" fill="#F89C35"/>
<path fill-rule="evenodd" clip-rule="evenodd" d="M1.23116 8.14293L0.0424805 12L3.01418 11.8095H4.92452V10.1429L4.83961 6.71436L4.41508 7.09531L1.23116 8.14293Z" fill="#F89D35"/>
<path fill-rule="evenodd" clip-rule="evenodd" d="M3.48096 8.57141L6.96209 8.66665L6.58005 10.6666L4.92435 10.1905L3.48096 8.57141Z" fill="#D87C30"/>
<path fill-rule="evenodd" clip-rule="evenodd" d="M3.48096 8.61902L4.92435 10.1428V11.6666L3.48096 8.61902Z" fill="#EA8D3A"/>
<path fill-rule="evenodd" clip-rule="evenodd" d="M4.9248 10.1904L6.62292 10.6666L7.17484 12.7143L6.79273 12.9523L4.9248 11.7142V10.1904Z" fill="#F89D35"/>
<path fill-rule="evenodd" clip-rule="evenodd" d="M4.92458 11.7144L4.58496 14.6667L6.835 12.9049L4.92458 11.7144Z" fill="#EB8F35"/>
<path fill-rule="evenodd" clip-rule="evenodd" d="M6.96213 8.66675L7.17443 12.7144L6.5376 10.643L6.96213 8.66675Z" fill="#EA8E3A"/>
<path fill-rule="evenodd" clip-rule="evenodd" d="M2.97168 11.762L4.92451 11.7144L4.58489 14.6667L2.97168 11.762Z" fill="#D87C30"/>
<path fill-rule="evenodd" clip-rule="evenodd" d="M0.976443 15.9524L4.5849 14.6667L2.97169 11.762L0.0424805 12L0.976443 15.9524Z" fill="#EB8F35"/>
<path fill-rule="evenodd" clip-rule="evenodd" d="M6.70737 4.95239L4.88194 6.66668L3.48096 8.57144L6.96209 8.71434L6.70737 4.95239Z" fill="#E8821E"/>
<path fill-rule="evenodd" clip-rule="evenodd" d="M4.58496 14.6666L6.835 12.9048L6.66519 14.4286V15.2857L5.13689 14.9524L4.58496 14.6666Z" fill="#DFCEC3"/>
<path fill-rule="evenodd" clip-rule="evenodd" d="M11.3774 14.6666L9.1699 12.9048L9.33971 14.4286V15.2857L10.868 14.9524L11.3774 14.6666Z" fill="#DFCEC3"/>
<path fill-rule="evenodd" clip-rule="evenodd" d="M6.0281 9.5238L6.49512 10.6191L4.83942 10.1429L6.0281 9.5238Z" fill="#393939"/>
<path fill-rule="evenodd" clip-rule="evenodd" d="M0.934082 0.0476074L6.70767 4.95232L5.73129 2.28566L0.934082 0.0476074Z" fill="#E88F35"/>
<path fill-rule="evenodd" clip-rule="evenodd" d="M0.934073 0.0476074L0.169922 2.66666L0.59445 5.5238L0.29728 5.71427L0.721809 6.14285L0.382186 6.47618L0.849167 6.95237L0.551997 7.23808L1.23124 8.19047L4.41521 7.09523C5.97181 5.6984 6.73596 4.98412 6.70766 4.95237C6.67936 4.92062 4.75483 3.2857 0.934073 0.0476074Z" fill="#8E5A30"/>
<path fill-rule="evenodd" clip-rule="evenodd" d="M14.7312 8.14293L15.9199 12L12.9482 11.8095H11.0379V10.1429L11.1228 6.71436L11.5473 7.09531L14.7312 8.14293Z" fill="#F89D35"/>
<path fill-rule="evenodd" clip-rule="evenodd" d="M12.4814 8.57141L9.00031 8.66665L9.38235 10.6666L11.038 10.1905L12.4814 8.57141Z" fill="#D87C30"/>
<path fill-rule="evenodd" clip-rule="evenodd" d="M12.4814 8.61902L11.038 10.1428V11.6666L12.4814 8.61902Z" fill="#EA8D3A"/>
<path fill-rule="evenodd" clip-rule="evenodd" d="M11.0381 10.1904L9.33997 10.6666L8.78805 12.7143L9.17016 12.9523L11.0381 11.7142V10.1904Z" fill="#F89D35"/>
<path fill-rule="evenodd" clip-rule="evenodd" d="M11.0378 11.7144L11.3774 14.6667L9.16989 12.9525L11.0378 11.7144Z" fill="#EB8F35"/>
<path fill-rule="evenodd" clip-rule="evenodd" d="M9.00028 8.66675L8.78798 12.7144L9.4248 10.643L9.00028 8.66675Z" fill="#EA8E3A"/>
<path fill-rule="evenodd" clip-rule="evenodd" d="M12.9907 11.762L11.0379 11.7144L11.3775 14.6667L12.9907 11.762Z" fill="#D87C30"/>
<path fill-rule="evenodd" clip-rule="evenodd" d="M14.986 15.9524L11.3775 14.6667L12.9907 11.762L15.9199 12L14.986 15.9524Z" fill="#EB8F35"/>
<path fill-rule="evenodd" clip-rule="evenodd" d="M9.25503 4.95239L11.0805 6.66668L12.4814 8.57144L9.00031 8.71434L9.25503 4.95239Z" fill="#E8821E"/>
<path fill-rule="evenodd" clip-rule="evenodd" d="M9.93431 9.5238L9.46729 10.6191L11.123 10.1429L9.93431 9.5238Z" fill="#393939"/>
<path fill-rule="evenodd" clip-rule="evenodd" d="M15.0283 0.0476074L9.25473 4.95232L10.2311 2.28566L15.0283 0.0476074Z" fill="#E88F35"/>
<path fill-rule="evenodd" clip-rule="evenodd" d="M15.0283 0.0476074L15.7925 2.66666L15.368 5.5238L15.6651 5.71427L15.2406 6.14285L15.5802 6.47618L15.1132 6.95237L15.4104 7.23808L14.7312 8.19047L11.5472 7.09523C9.9906 5.6984 9.22644 4.98412 9.25475 4.95237C9.28305 4.92062 11.2076 3.2857 15.0283 0.0476074Z" fill="#8E5A30"/>
</svg>
