<svg width="153" height="135" viewBox="0 0 153 135" fill="none" xmlns="http://www.w3.org/2000/svg">
<path d="M115.435 41.1792C112.648 39.5849 109.066 39.5849 105.881 41.1792L83.5906 54.3324L68.4647 62.7027L46.5719 75.8559C43.7855 77.4503 40.2031 77.4503 37.0187 75.8559L19.9025 65.4928C17.1162 63.8984 15.1259 60.7098 15.1259 57.1225V37.1934C15.1259 34.0047 16.7181 30.816 19.9025 28.8231L37.0187 18.8585C39.805 17.2642 43.3875 17.2642 46.5719 18.8585L63.6881 29.2217C66.4744 30.816 68.4647 34.0047 68.4647 37.5919V50.7452L83.5906 41.9764V28.4245C83.5906 25.2359 81.9984 22.0472 78.814 20.0543L46.97 1.32087C44.1836 -0.273461 40.6011 -0.273461 37.4167 1.32087L4.77661 20.4529C1.5922 22.0472 0 25.2359 0 28.4245V65.8913C0 69.08 1.5922 72.2687 4.77661 74.2616L37.0187 92.995C39.805 94.5893 43.3875 94.5893 46.5719 92.995L68.4647 80.2403L83.5906 71.4715L105.483 58.7168C108.27 57.1225 111.852 57.1225 115.037 58.7168L132.153 68.6814C134.939 70.2758 136.929 73.4644 136.929 77.0517V96.9808C136.929 100.169 135.337 103.358 132.153 105.351L115.435 115.316C112.648 116.91 109.066 116.91 105.881 115.316L88.7653 105.351C85.9789 103.757 83.9886 100.568 83.9886 96.9808V84.2262L68.8627 92.995V106.148C68.8627 109.337 70.4549 112.526 73.6393 114.518L105.881 133.252C108.668 134.846 112.25 134.846 115.435 133.252L147.677 114.518C150.463 112.924 152.453 109.735 152.453 106.148V68.2828C152.453 65.0942 150.861 61.9055 147.677 59.9126L115.435 41.1792Z" fill="#8247E5"/>
</svg>
